<?xml version="1.0" encoding="UTF-8" standalone="no"?>
<!-- Created with Inkscape (http://www.inkscape.org/) -->

<svg
   xmlns:dc="http://purl.org/dc/elements/1.1/"
   xmlns:cc="http://creativecommons.org/ns#"
   xmlns:rdf="http://www.w3.org/1999/02/22-rdf-syntax-ns#"
   xmlns:svg="http://www.w3.org/2000/svg"
   xmlns="http://www.w3.org/2000/svg"
   xmlns:sodipodi="http://sodipodi.sourceforge.net/DTD/sodipodi-0.dtd"
   xmlns:inkscape="http://www.inkscape.org/namespaces/inkscape"
   width="1680"
   height="1050"
   viewBox="0 0 1680 1050"
   id="svg2"
   version="1.1"
   inkscape:version="0.91pre3 r13670"
   sodipodi:docname="sky.svg">
  <defs
     id="defs4" />
  <sodipodi:namedview
     id="base"
     pagecolor="#ffffff"
     bordercolor="#666666"
     borderopacity="1.0"
     inkscape:pageopacity="0.0"
     inkscape:pageshadow="2"
     inkscape:zoom="0.5"
     inkscape:cx="793.8008"
     inkscape:cy="413.27946"
     inkscape:document-units="px"
     inkscape:current-layer="layer1"
     showgrid="false"
     units="px"
     borderlayer="true"
     inkscape:window-width="1920"
     inkscape:window-height="1056"
     inkscape:window-x="1920"
     inkscape:window-y="24"
     inkscape:window-maximized="1" />
  <metadata
     id="metadata7">
    <rdf:RDF>
      <cc:Work
         rdf:about="">
        <dc:format>image/svg+xml</dc:format>
        <dc:type
           rdf:resource="http://purl.org/dc/dcmitype/StillImage" />
        <dc:title></dc:title>
      </cc:Work>
    </rdf:RDF>
  </metadata>
  <g
     inkscape:label="Capa 1"
     inkscape:groupmode="layer"
     id="layer1"
     transform="translate(0,-2.36214)">
    <path
       id="path13811"
       d="m 1585.8153,408.68143 c -1.3934,-21.57989 -19.3354,-38.65278 -41.2675,-38.65278 -18.6374,0 -34.3933,12.3284 -39.5627,29.2744 -2.8965,-1.09666 -6.0345,-1.70171 -9.3151,-1.70171 -13.4232,0 -24.4914,10.05173 -26.1075,23.0372 -0.097,-10e-4 -0.1924,-0.007 -0.2896,-0.007 -11.5504,0 -20.914,9.36334 -20.914,20.91405 0,11.55072 9.3633,20.91374 20.914,20.91374 1.3743,0 2.7163,-0.13661 4.0167,-0.38947 6.3139,8.48161 16.4167,13.97591 27.8033,13.97591 9.785,0 18.621,-4.05829 24.9203,-10.58189 4.7222,4.72851 11.249,7.6541 18.4594,7.6541 9.848,0 18.4187,-5.45826 22.8592,-13.51312 3.6585,1.82486 7.7845,2.85322 12.1501,2.85322 15.0548,0 27.2594,-12.20402 27.2594,-27.25874 0,-12.87423 -8.9256,-23.6623 -20.926,-26.5177 z"
       inkscape:connector-curvature="0"
       style="fill:#ffffff;opacity:0.36969697" />
    <path
       inkscape:connector-curvature="0"
       d="m 1580.8169,675.68287 c -2.2644,-35.06813 -31.4208,-62.81222 -67.0613,-62.81222 -30.2864,0 -55.8904,20.03411 -64.2908,47.572 -4.707,-1.78212 -9.8063,-2.76535 -15.1374,-2.76535 -21.8132,0 -39.7995,16.33444 -42.4257,37.43632 -0.1576,-0.002 -0.3127,-0.0114 -0.4706,-0.0114 -18.7698,0 -33.986,15.21578 -33.986,33.98612 0,18.77036 15.2157,33.98561 33.986,33.98561 2.2333,0 4.4141,-0.22199 6.5273,-0.6329 10.2603,13.78294 26.6777,22.71138 45.1814,22.71138 15.901,0 30.2598,-6.59487 40.4964,-17.19597 7.6738,7.68401 18.2801,12.4382 29.9972,12.4382 16.0034,0 29.9311,-8.86988 37.1471,-21.95933 5.9452,2.96547 12.6501,4.63659 19.7444,4.63659 24.4646,0 44.2975,-19.83199 44.2975,-44.29647 0,-20.92111 -14.5044,-38.45213 -34.0055,-43.09226 z"
       id="path13820"
       style="fill:#ffffff;opacity:0.36969697" />
    <path
       id="path13822"
       d="m 1395.8966,599.1842 c -0.9633,-14.91761 -13.3661,-26.71965 -28.5272,-26.71965 -12.8835,0 -23.7752,8.5223 -27.3486,20.23662 -2.0023,-0.75809 -4.1715,-1.17635 -6.4393,-1.17635 -9.2791,0 -16.9303,6.9485 -18.0474,15.92501 -0.067,-8.5e-4 -0.133,-0.005 -0.2002,-0.005 -7.9845,0 -14.4573,6.47263 -14.4573,14.45733 0,7.98472 6.4726,14.45712 14.4573,14.45712 0.95,0 1.8777,-0.0944 2.7766,-0.26923 4.3646,5.86312 11.3484,9.66118 19.2197,9.66118 6.7641,0 12.8722,-2.80539 17.2267,-7.31498 3.2644,3.26869 7.7762,5.29108 12.7605,5.29108 6.8077,0 12.7324,-3.77316 15.802,-9.34127 2.529,1.26148 5.3812,1.97236 8.3991,1.97236 10.407,0 18.8437,-8.43632 18.8437,-18.84325 0,-8.89962 -6.1701,-16.35712 -14.4656,-18.33099 z"
       inkscape:connector-curvature="0"
       style="fill:#ffffff;opacity:0.36969697" />
    <path
       inkscape:connector-curvature="0"
       d="m 1315.0844,223.40745 c -0.9633,-14.91761 -13.3661,-26.71965 -28.5272,-26.71965 -12.8835,0 -23.7752,8.5223 -27.3486,20.23662 -2.0023,-0.75809 -4.1715,-1.17635 -6.4393,-1.17635 -9.2791,0 -16.9303,6.9485 -18.0474,15.92501 -0.067,-8.5e-4 -0.133,-0.005 -0.2002,-0.005 -7.9845,0 -14.4573,6.47263 -14.4573,14.45733 0,7.98472 6.4726,14.45712 14.4573,14.45712 0.95,0 1.8777,-0.0944 2.7766,-0.26923 4.3646,5.86312 11.3484,9.66118 19.2197,9.66118 6.7641,0 12.8722,-2.80539 17.2267,-7.31498 3.2644,3.26869 7.7762,5.29108 12.7605,5.29108 6.8077,0 12.7324,-3.77316 15.802,-9.34127 2.529,1.26148 5.3812,1.97236 8.3991,1.97236 10.407,0 18.8437,-8.43632 18.8437,-18.84325 0,-8.89962 -6.1701,-16.35712 -14.4656,-18.33099 z"
       id="path13824"
       style="fill:#ffffff;opacity:0.36969697" />
    <path
       id="path13826"
       d="m 1341.641,389.5984 c -0.6181,-9.57155 -8.5761,-17.14405 -18.3038,-17.14405 -8.2664,0 -15.2548,5.46813 -17.5476,12.98436 -1.2848,-0.48641 -2.6766,-0.75478 -4.1317,-0.75478 -5.9537,0 -10.8629,4.45835 -11.5797,10.21792 -0.043,-5.5e-4 -0.085,-0.003 -0.1284,-0.003 -5.1231,0 -9.2762,4.15301 -9.2762,9.27621 0,5.12321 4.153,9.27608 9.2762,9.27608 0.6095,0 1.2048,-0.0606 1.7815,-0.17274 2.8005,3.76193 7.2815,6.19887 12.3319,6.19887 4.34,0 8.2592,-1.80001 11.0531,-4.69349 2.0946,2.09728 4.9895,3.3949 8.1875,3.3949 4.368,0 8.1695,-2.42096 10.139,-5.99361 1.6227,0.8094 3.4527,1.26552 5.3891,1.26552 6.6774,0 12.0906,-5.41297 12.0906,-12.09034 0,-5.71024 -3.9589,-10.49517 -9.2815,-11.76166 z"
       inkscape:connector-curvature="0"
       style="fill:#ffffff;opacity:0.36969697" />
    <path
       inkscape:connector-curvature="0"
       d="m 349.28488,362.21442 c 1.3934,-21.57989 19.3354,-38.65278 41.2675,-38.65278 18.6374,0 34.3933,12.3284 39.5627,29.2744 2.8965,-1.09666 6.0345,-1.70171 9.3151,-1.70171 13.4232,0 24.4914,10.05173 26.1075,23.0372 0.097,-0.001 0.1924,-0.007 0.2896,-0.007 11.5504,0 20.914,9.36334 20.914,20.91405 0,11.55072 -9.3633,20.91374 -20.914,20.91374 -1.3743,0 -2.7163,-0.13661 -4.0167,-0.38947 -6.3139,8.48161 -16.4167,13.97591 -27.8033,13.97591 -9.785,0 -18.621,-4.05829 -24.9203,-10.58189 -4.7222,4.72851 -11.249,7.6541 -18.4594,7.6541 -9.848,0 -18.4187,-5.45826 -22.8592,-13.51312 -3.6585,1.82486 -7.7845,2.85322 -12.1501,2.85322 -15.0548,0 -27.2594,-12.20402 -27.2594,-27.25874 0,-12.87423 8.9256,-23.6623 20.926,-26.5177 z"
       id="path13828"
       style="fill:#ffffff;opacity:0.36969697" />
    <path
       id="path13830"
       d="m 174.47608,457.48992 c 2.2644,-35.06813 31.4208,-62.81222 67.0613,-62.81222 30.2864,0 55.8904,20.03411 64.2908,47.572 4.707,-1.78212 9.8063,-2.76535 15.1374,-2.76535 21.8132,0 39.7995,16.33444 42.4257,37.43632 0.1576,-0.002 0.3127,-0.0114 0.4706,-0.0114 18.7698,0 33.986,15.21578 33.986,33.98612 0,18.77036 -15.2157,33.98561 -33.986,33.98561 -2.2333,0 -4.4141,-0.22199 -6.5273,-0.6329 -10.2603,13.78294 -26.6777,22.71138 -45.1814,22.71138 -15.901,0 -30.2598,-6.59487 -40.4964,-17.19597 -7.6738,7.68401 -18.2801,12.4382 -29.9972,12.4382 -16.0034,0 -29.9311,-8.86988 -37.1471,-21.95933 -5.9452,2.96547 -12.6501,4.63659 -19.7444,4.63659 -24.4646,0 -44.2975,-19.83199 -44.2975,-44.29647 0,-20.92111 14.5044,-38.45213 34.0055,-43.09226 z"
       inkscape:connector-curvature="0"
       style="fill:#ffffff;opacity:0.36969697" />
    <path
       inkscape:connector-curvature="0"
       d="m 195.75171,783.03196 c 0.9633,-14.91761 13.3661,-26.71965 28.5272,-26.71965 12.8835,0 23.7752,8.5223 27.3486,20.23662 2.0023,-0.75809 4.1715,-1.17635 6.4393,-1.17635 9.2791,0 16.9303,6.9485 18.0474,15.92501 0.067,-8.5e-4 0.133,-0.005 0.2002,-0.005 7.9845,0 14.4573,6.47263 14.4573,14.45733 0,7.98472 -6.4726,14.45712 -14.4573,14.45712 -0.95,0 -1.8777,-0.0944 -2.7766,-0.26923 -4.3646,5.86312 -11.3484,9.66118 -19.2197,9.66118 -6.7641,0 -12.8722,-2.80539 -17.2267,-7.31498 -3.2644,3.26869 -7.7762,5.29108 -12.7605,5.29108 -6.8077,0 -12.7324,-3.77316 -15.802,-9.34127 -2.529,1.26148 -5.3812,1.97236 -8.3991,1.97236 -10.407,0 -18.8437,-8.43632 -18.8437,-18.84325 0,-8.89962 6.1701,-16.35712 14.4656,-18.33099 z"
       id="path13832"
       style="fill:#ffffff;opacity:0.36969697" />
    <path
       id="path13834"
       d="m 213.93445,219.36684 c 0.9633,-14.91761 13.3661,-26.71965 28.5272,-26.71965 12.8835,0 23.7752,8.5223 27.3486,20.23662 2.0023,-0.75809 4.1715,-1.17635 6.4393,-1.17635 9.2791,0 16.9303,6.9485 18.0474,15.92501 0.067,-8.5e-4 0.133,-0.005 0.2002,-0.005 7.9845,0 14.4573,6.47263 14.4573,14.45733 0,7.98472 -6.4726,14.45712 -14.4573,14.45712 -0.95,0 -1.8777,-0.0944 -2.7766,-0.26923 -4.3646,5.86312 -11.3484,9.66118 -19.2197,9.66118 -6.7641,0 -12.8722,-2.80539 -17.2267,-7.31498 -3.2644,3.26869 -7.7762,5.29108 -12.7605,5.29108 -6.8077,0 -12.7324,-3.77316 -15.802,-9.34127 -2.529,1.26148 -5.3812,1.97236 -8.3991,1.97236 -10.407,0 -18.8437,-8.43632 -18.8437,-18.84325 0,-8.89962 6.1701,-16.35712 14.4656,-18.33099 z"
       inkscape:connector-curvature="0"
       style="fill:#ffffff;opacity:0.36969697" />
    <path
       inkscape:connector-curvature="0"
       d="m 458.09873,900.73559 c 0.6181,-9.57155 8.5761,-17.14405 18.3038,-17.14405 8.2664,0 15.2548,5.46813 17.5476,12.98436 1.2848,-0.48641 2.6766,-0.75478 4.1317,-0.75478 5.9537,0 10.8629,4.45835 11.5797,10.21792 0.043,-5.5e-4 0.085,-0.003 0.1284,-0.003 5.1231,0 9.2762,4.15301 9.2762,9.27621 0,5.12321 -4.153,9.27608 -9.2762,9.27608 -0.6095,0 -1.2048,-0.0606 -1.7815,-0.17274 -2.8005,3.76193 -7.2815,6.19887 -12.3319,6.19887 -4.34,0 -8.2592,-1.80001 -11.0531,-4.69349 -2.0946,2.09728 -4.9895,3.3949 -8.1875,3.3949 -4.368,0 -8.1695,-2.42096 -10.139,-5.99361 -1.6227,0.8094 -3.4527,1.26552 -5.3891,1.26552 -6.6774,0 -12.0906,-5.41297 -12.0906,-12.09034 0,-5.71024 3.9589,-10.49517 9.2815,-11.76166 z"
       id="path13836"
       style="fill:#ffffff;opacity:0.36969697" />
    <path
       id="path13838"
       d="m 1246.394,964.85942 c -0.9633,-14.91761 -13.3661,-26.71965 -28.5272,-26.71965 -12.8835,0 -23.7752,8.5223 -27.3486,20.23662 -2.0023,-0.75809 -4.1715,-1.17635 -6.4393,-1.17635 -9.2791,0 -16.9303,6.9485 -18.0474,15.92501 -0.067,-8.5e-4 -0.133,-0.005 -0.2002,-0.005 -7.9845,0 -14.4573,6.47263 -14.4573,14.45733 0,7.98472 6.4726,14.45712 14.4573,14.45712 0.95,0 1.8777,-0.094 2.7766,-0.2692 4.3646,5.8631 11.3484,9.6611 19.2197,9.6611 6.7641,0 12.8722,-2.8053 17.2267,-7.3149 3.2644,3.2687 7.7762,5.291 12.7605,5.291 6.8077,0 12.7324,-3.7731 15.802,-9.3412 2.529,1.2615 5.3812,1.9723 8.3991,1.9723 10.407,0 18.8437,-8.43628 18.8437,-18.84321 0,-8.89962 -6.1701,-16.35712 -14.4656,-18.33099 z"
       inkscape:connector-curvature="0"
       style="fill:#ffffff;opacity:0.36969697" />
  </g>
</svg>
